<svg xmlns="http://www.w3.org/2000/svg" xmlns:xlink="http://www.w3.org/1999/xlink" version="1.1" x="0px" y="0px" viewBox="0 0 100 100" enable-background="new 0 0 100 100" xml:space="preserve"><path d="M81.8,35.7c-1-1-2.6-1-3.5,0c-1,1-1,2.6,0,3.5L80,41l9,9l-9,9l-1.8,1.8c-1,1-1,2.6,0,3.5c0.5,0.5,1.1,0.7,1.8,0.7  s1.3-0.2,1.8-0.7l12.5-12.5c1-1,1-2.6,0-3.5L81.8,35.7z"/><path d="M21.8,39.3c1-1,1-2.6,0-3.5c-1-1-2.6-1-3.5,0L5.7,48.2c-1,1-1,2.6,0,3.5l12.5,12.5c0.5,0.5,1.1,0.7,1.8,0.7s1.3-0.2,1.8-0.7  c1-1,1-2.6,0-3.5L20,59l-9-9l9-9L21.8,39.3z"/><path d="M60.8,63.7c4.1-3.2,6.7-8.2,6.7-13.7c0-9.6-7.9-17.5-17.5-17.5S32.5,40.4,32.5,50S40.4,67.5,50,67.5c2.3,0,4.5-0.5,6.5-1.3  l10.1,17.5c0.5,0.8,1.3,1.3,2.2,1.3c0.4,0,0.9-0.1,1.2-0.3c1.2-0.7,1.6-2.2,0.9-3.4L60.8,63.7z M50,62.5c-6.9,0-12.5-5.6-12.5-12.5  S43.1,37.5,50,37.5S62.5,43.1,62.5,50S56.9,62.5,50,62.5z"/></svg>