<?xml version="1.0" encoding="UTF-8" standalone="no"?>
<!-- Created with Inkscape (http://www.inkscape.org/) -->

<svg
   xmlns:dc="http://purl.org/dc/elements/1.1/"
   xmlns:cc="http://creativecommons.org/ns#"
   xmlns:rdf="http://www.w3.org/1999/02/22-rdf-syntax-ns#"
   xmlns:svg="http://www.w3.org/2000/svg"
   xmlns="http://www.w3.org/2000/svg"
   xmlns:sodipodi="http://sodipodi.sourceforge.net/DTD/sodipodi-0.dtd"
   xmlns:inkscape="http://www.inkscape.org/namespaces/inkscape"
   width="36.148888mm"
   height="36.148888mm"
   viewBox="0 0 128.08661 128.08661"
   id="svg2"
   version="1.1"
   inkscape:version="0.91 r13725"
   sodipodi:docname="drawing.svg">
  <defs
     id="defs4">
    <inkscape:path-effect
       effect="construct_grid"
       id="path-effect4079"
       is_visible="true"
       nr_x="6"
       nr_y="6" />
    <inkscape:path-effect
       effect="construct_grid"
       id="path-effect4016"
       is_visible="true"
       nr_x="6"
       nr_y="6" />
  </defs>
  <sodipodi:namedview
     id="base"
     pagecolor="#ffffff"
     bordercolor="#666666"
     borderopacity="1.0"
     inkscape:pageopacity="0.0"
     inkscape:pageshadow="2"
     inkscape:zoom="1"
     inkscape:cx="-132.45669"
     inkscape:cy="-35.45669"
     inkscape:document-units="px"
     inkscape:current-layer="layer1"
     showgrid="false"
     inkscape:window-width="1440"
     inkscape:window-height="851"
     inkscape:window-x="0"
     inkscape:window-y="273"
     inkscape:window-maximized="1"
     inkscape:snap-bbox="true"
     fit-margin-top="1"
     fit-margin-left="1"
     fit-margin-right="1"
     fit-margin-bottom="1" />
  <metadata
     id="metadata7">
    <rdf:RDF>
      <cc:Work
         rdf:about="">
        <dc:format>image/svg+xml</dc:format>
        <dc:type
           rdf:resource="http://purl.org/dc/dcmitype/StillImage" />
        <dc:title></dc:title>
      </cc:Work>
    </rdf:RDF>
  </metadata>
  <g
     inkscape:label="Layer 1"
     inkscape:groupmode="layer"
     id="layer1"
     transform="translate(-72.956693,-28.318899)">
    <path
       style="fill:none;stroke:#b3b3b3;stroke-linecap:square"
       d="m 197,32.362206 -120,0 m 120,20 -120,0 m 120,20 -120,0 m 120,20 -120,0 m 120,20.000004 -120,0 m 120,20 -120,0 m 120,20 -120,0 M 197,32.362206 197,152.36221 M 177,32.362206 177,152.36221 M 157,32.362206 157,152.36221 M 137,32.362206 137,152.36221 M 117,32.362206 117,152.36221 M 97,32.362206 97,152.36221 M 77,32.362206 77,152.36221"
       id="rect4076"
       inkscape:path-effect="#path-effect4079"
       inkscape:original-d="m 177,32.362206 20,0 0,20 -20,0 z"
       inkscape:connector-curvature="0" />
    <path
       style="fill:none;stroke:#5599ff;stroke-linecap:square;stroke-opacity:1"
       d="m 97.8,142.36221 0,-9 9,0 9,0 0,9 0,9 -9,0 -9,0 0,-9 z"
       id="path4919"
       inkscape:connector-curvature="0" />
    <path
       style="fill:none;stroke:#5599ff;stroke-linecap:square;stroke-opacity:1"
       d="m 97.8,122.36221 0,-9 9,0 9,0 0,9 0,9 -9,0 -9,0 0,-9 z"
       id="path4921"
       inkscape:connector-curvature="0" />
    <path
       style="fill:none;stroke:#5599ff;stroke-linecap:square;stroke-opacity:1"
       d="m 97.8,102.36221 0,-9.000002 9,0 9,0 0,9.000002 0,9 -9,0 -9,0 0,-9 z"
       id="path4923"
       inkscape:connector-curvature="0" />
    <path
       style="fill:none;stroke:#5599ff;stroke-linecap:square;stroke-opacity:1"
       d="m 97.8,82.362208 0,-9 9,0 9,0 0,9 0,9 -9,0 -9,0 0,-9 z"
       id="path4925"
       inkscape:connector-curvature="0" />
    <path
       style="fill:none;stroke:#5599ff;stroke-linecap:square;stroke-opacity:1"
       d="m 97.8,62.362208 0,-9 9,0 9,0 0,9 0,9 -9,0 -9,0 0,-9 z"
       id="path4927"
       inkscape:connector-curvature="0" />
    <path
       style="fill:none;stroke:#5599ff;stroke-linecap:square;stroke-opacity:1"
       d="m 97.8,42.362208 0,-9 9,0 9,0 0,9 0,9 -9,0 -9,0 0,-9 z"
       id="path4929"
       inkscape:connector-curvature="0" />
    <path
       style="fill:none;stroke:#de8787;stroke-linecap:square;stroke-opacity:1"
       d="m 77.8,102.36221 0,-9.000002 9,0 9,0 0,9.000002 0,9 -9,0 -9,0 0,-9 z"
       id="path4931"
       inkscape:connector-curvature="0" />
    <path
       style="fill:none;stroke:#de8787;stroke-linecap:square;stroke-opacity:1"
       d="m 98.8,102.36221 0,-8.000002 8,0 8,0 0,8.000002 0,8 -8,0 -8,0 0,-8 z"
       id="path4933"
       inkscape:connector-curvature="0" />
    <path
       style="fill:none;stroke:#de8787;stroke-linecap:square;stroke-opacity:1"
       d="m 117.8,102.36221 0,-9.000002 9,0 9,0 0,9.000002 0,9 -9,0 -9,0 0,-9 z"
       id="path4935"
       inkscape:connector-curvature="0" />
    <path
       style="fill:none;stroke:#de8787;stroke-linecap:square;stroke-opacity:1"
       d="m 137.8,102.36221 0,-9.000002 9,0 9,0 0,9.000002 0,9 -9,0 -9,0 0,-9 z"
       id="path4937"
       inkscape:connector-curvature="0" />
    <path
       style="fill:none;stroke:#de8787;stroke-linecap:square;stroke-opacity:1"
       d="m 157.8,102.36221 0,-9.000002 9,0 9,0 0,9.000002 0,9 -9,0 -9,0 0,-9 z"
       id="path4939"
       inkscape:connector-curvature="0" />
    <path
       style="fill:none;stroke:#de8787;stroke-linecap:square;stroke-opacity:1"
       d="m 177.8,102.36221 0,-9.000002 9,0 9,0 0,9.000002 0,9 -9,0 -9,0 0,-9 z"
       id="path4949"
       inkscape:connector-curvature="0" />
  </g>
</svg>
